<?xml version="1.0" standalone="no"?>
<!DOCTYPE svg PUBLIC "-//W3C//DTD SVG 20010904//EN"
 "http://www.w3.org/TR/2001/REC-SVG-20010904/DTD/svg10.dtd">
<svg version="1.0" xmlns="http://www.w3.org/2000/svg"
 width="512.000000pt" height="512.000000pt" viewBox="0 0 512.000000 512.000000"
 preserveAspectRatio="xMidYMid meet">
<metadata>
Created by potrace 1.16, written by Peter Selinger 2001-2019
</metadata>
<g transform="translate(0.000000,512.000000) scale(0.100000,-0.100000)"
fill="#000000" stroke="none">
<path d="M4669 4701 l-29 -29 0 -132 c0 -495 -141 -887 -414 -1155 -165 -161
-325 -247 -581 -313 -356 -91 -643 -124 -847 -97 -142 19 -180 19 -225 0 l-36
-15 6 47 c3 27 11 183 17 348 6 165 17 401 26 525 16 243 11 335 -25 414 -23
54 -41 67 -96 74 -44 4 -51 1 -163 -73 -362 -241 -637 -463 -1347 -1085 -473
-414 -644 -560 -827 -707 -64 -52 -119 -101 -122 -109 -3 -9 -6 -36 -6 -60 0
-41 5 -50 84 -137 101 -111 367 -372 569 -555 81 -74 147 -138 147 -143 0 -5
5 -9 10 -9 6 0 77 -57 158 -126 297 -255 610 -499 791 -618 180 -119 342 -196
506 -241 70 -19 80 -25 86 -49 5 -16 16 -37 25 -47 23 -26 87 -26 113 0 22 22
46 119 61 247 15 134 24 1048 12 1169 -6 54 -10 101 -8 102 2 2 34 -3 72 -11
255 -54 635 -68 864 -32 560 87 976 352 1235 788 99 166 212 481 299 828 68
269 88 399 93 605 6 210 -8 312 -57 412 -35 71 -111 145 -168 164 -20 6 -53
20 -72 30 -19 11 -54 19 -78 19 -35 0 -49 -6 -73 -29z m238 -547 c3 -67 2
-155 -1 -196 -7 -73 -8 -75 -32 -70 -31 6 -48 -9 -96 -86 -22 -35 -42 -62 -43
-60 -2 2 12 48 31 103 41 124 81 320 90 445 l7 95 20 -55 c13 -38 21 -94 24
-176z m-2562 -66 c0 -35 4 -124 8 -200 l9 -136 -139 -104 c-76 -58 -286 -212
-468 -343 -471 -339 -619 -456 -866 -681 -134 -122 -300 -298 -388 -414 l-46
-60 -63 63 c-35 34 -72 74 -83 89 l-19 26 237 189 c691 548 1100 907 1543
1354 151 153 275 278 275 278 0 1 0 -27 0 -61z m2490 -499 c-53 -198 -62 -218
-134 -294 -37 -38 -136 -151 -221 -250 -166 -194 -274 -304 -642 -653 -173
-163 -238 -231 -238 -247 0 -20 -8 -24 -82 -38 -76 -15 -226 -37 -249 -37 -15
0 86 88 466 405 389 324 565 483 702 631 168 182 306 368 384 519 19 35 35 63
36 61 1 -1 -9 -45 -22 -97z m-2456 -239 l0 -65 -102 -64 c-214 -135 -476 -332
-832 -626 -297 -245 -634 -514 -724 -579 l-82 -59 -69 68 -69 68 62 70 c87 99
326 318 497 456 172 139 351 272 750 558 162 116 354 255 425 310 l130 98 6
-85 c4 -47 7 -114 8 -150z m46 -426 c22 -16 63 -18 85 -4 11 7 17 5 21 -7 4
-12 -27 -38 -120 -101 -644 -438 -1028 -731 -1384 -1056 l-98 -89 -120 119
c-65 65 -119 121 -119 124 0 3 15 14 33 24 65 38 527 347 697 466 229 161 593
434 800 599 l165 131 10 -96 c8 -75 14 -99 30 -110z m2199 54 c-136 -321 -364
-567 -664 -718 -94 -47 -258 -113 -270 -108 -4 2 70 72 164 155 94 84 313 287
486 452 173 165 316 300 317 301 1 0 -14 -37 -33 -82z m-634 -101 c-96 -94
-316 -308 -487 -475 -172 -167 -313 -310 -313 -317 0 -7 -7 -16 -16 -19 -21
-8 -197 -6 -254 2 l-45 7 125 114 c126 115 344 292 613 499 81 62 147 119 147
128 0 8 -4 23 -9 33 -8 14 3 21 87 49 53 18 147 59 207 92 61 32 112 58 115
59 3 0 -74 -77 -170 -172z m-1265 -81 c28 -9 101 -20 163 -25 62 -5 115 -11
117 -13 7 -7 -291 -238 -560 -434 -99 -72 -392 -280 -652 -462 -259 -182 -502
-353 -539 -381 l-68 -50 -69 62 c-38 34 -82 73 -99 88 l-30 25 209 155 c114
85 377 276 583 424 423 303 752 545 793 583 17 16 27 36 27 54 l0 28 38 -18
c20 -11 60 -27 87 -36z m880 21 c-309 -229 -641 -522 -794 -701 l-33 -39 -120
17 c-65 9 -130 21 -144 26 -42 16 -64 11 -96 -20 -27 -27 -29 -35 -24 -73 7
-53 7 -162 0 -203 -4 -23 -15 -35 -42 -48 -54 -26 -123 -70 -257 -167 -66 -47
-196 -137 -290 -199 -93 -62 -203 -138 -243 -167 l-74 -54 -56 42 c-31 24 -82
63 -112 88 -30 25 -59 48 -63 52 -9 6 106 83 508 339 638 407 988 654 1297
918 79 68 108 98 108 115 0 22 5 24 118 36 64 6 167 22 227 35 61 13 112 24
115 25 3 0 -8 -10 -25 -22z m-1225 -1256 c0 -62 -2 -70 -21 -76 -11 -4 -106
-71 -209 -149 -104 -78 -249 -176 -322 -218 l-132 -75 -68 45 c-37 25 -68 48
-68 51 1 15 400 260 608 373 91 49 174 95 186 103 11 8 22 15 23 15 2 0 3 -31
3 -69z m-14 -284 l-7 -74 -90 -74 c-50 -41 -143 -111 -207 -156 l-117 -82 -30
18 c-16 10 -51 31 -77 46 -27 15 -48 30 -48 33 0 4 35 25 77 47 66 35 404 254
472 307 13 10 26 16 29 14 2 -3 1 -38 -2 -79z m-25 -343 c-6 -59 -11 -129 -11
-156 0 -26 -5 -48 -10 -48 -14 0 -197 73 -244 97 l-36 19 152 100 c84 56 154
100 156 98 2 -1 -1 -51 -7 -110z"/>
</g>
</svg>
